HIERARCHY
ROOT root
{
	OFFSET 0.000000 0.000000 0.000000
	CHANNELS 6 Xposition Yposition Zposition Zrotation Yrotation Xrotation
	JOINT lhip
	{
		OFFSET 0.058581 -0.082280 -0.017664
		CHANNELS 3 Zrotation Yrotation Xrotation
		JOINT lknee
		{
			OFFSET 0.043451 -0.386469 0.008037
			CHANNELS 3 Zrotation Yrotation Xrotation
			JOINT lankle
			{
				OFFSET -0.014790 -0.426874 -0.037428
				CHANNELS 3 Zrotation Yrotation Xrotation
				JOINT ltoe
				{
					OFFSET 0.041054 -0.060286 0.122042
					CHANNELS 3 Zrotation Yrotation Xrotation
					End Site
					{
						OFFSET 0.000000 0.000000 0.000000
					}
				}
			}
		}
	}
	JOINT rhip
	{
		OFFSET -0.060310 -0.090513 -0.013543
		CHANNELS 3 Zrotation Yrotation Xrotation
		JOINT rknee
		{
			OFFSET -0.043257 -0.383688 -0.004843
			CHANNELS 3 Zrotation Yrotation Xrotation
			JOINT rankle
			{
				OFFSET 0.019056 -0.420046 -0.034562
				CHANNELS 3 Zrotation Yrotation Xrotation
				JOINT rtoe
				{
					OFFSET -0.034840 -0.062106 0.130323
					CHANNELS 3 Zrotation Yrotation Xrotation
					End Site
					{
						OFFSET 0.000000 0.000000 0.000000
					}
				}
			}
		}
	}
	JOINT lowerback
	{
		OFFSET 0.004439 0.124404 -0.038385
		CHANNELS 3 Zrotation Yrotation Xrotation
		JOINT upperback
		{
			OFFSET 0.004488 0.137956 0.026820
			CHANNELS 3 Zrotation Yrotation Xrotation
			JOINT chest
			{
				OFFSET -0.002265 0.056032 0.002855
				CHANNELS 3 Zrotation Yrotation Xrotation
				JOINT lowerneck
				{
					OFFSET -0.013390 0.211636 -0.033468
					CHANNELS 3 Zrotation Yrotation Xrotation
					JOINT upperneck
					{
						OFFSET 0.010113 0.088937 0.050410
						CHANNELS 3 Zrotation Yrotation Xrotation
						End Site
						{
							OFFSET 0.000000 0.000000 0.000000
						}
					}
				}
				JOINT lclavicle
				{
					OFFSET 0.071702 0.114000 -0.018898
					CHANNELS 3 Zrotation Yrotation Xrotation
					JOINT lshoulder
					{
						OFFSET 0.122921 0.045205 -0.019046
						CHANNELS 3 Zrotation Yrotation Xrotation
						JOINT lelbow
						{
							OFFSET 0.255332 -0.015649 -0.022946
							CHANNELS 3 Zrotation Yrotation Xrotation
							JOINT lwrist
							{
								OFFSET 0.265709 0.012698 -0.007375
								CHANNELS 3 Zrotation Yrotation Xrotation
								End Site
								{
									OFFSET 0.000000 0.000000 0.000000
								}
							}
						}
					}
				}
				JOINT rclavicle
				{
					OFFSET -0.082954 0.112472 -0.023707
					CHANNELS 3 Zrotation Yrotation Xrotation
					JOINT rshoulder
					{
						OFFSET -0.113228 0.046853 -0.008472
						CHANNELS 3 Zrotation Yrotation Xrotation
						JOINT relbow
						{
							OFFSET -0.260127 -0.014369 -0.031269
							CHANNELS 3 Zrotation Yrotation Xrotation
							JOINT rwrist
							{
								OFFSET -0.269108 0.006794 -0.006027
								CHANNELS 3 Zrotation Yrotation Xrotation
								End Site
								{
									OFFSET 0.000000 0.000000 0.000000
								}
							}
						}
					}
				}
			}
		}
	}
}
MOTION
Frames: 16
Frame Time: 0.033333
0.266421 0.391407 0.996110 -7.747404 -1.693527 88.176879 -0.912269 -4.380625 -24.050466 -1.473129 0.021463 4.841462 1.141607 12.334718 -14.588465 0.000000 -0.000000 0.000000 -0.464959 -5.496364 8.482887 1.240891 10.108038 16.092243 7.150335 -4.556763 -16.229700 0.000000 -0.000000 0.000000 3.245072 9.618005 8.306818 1.089992 -0.721809 -4.896335 1.615967 4.295233 2.229642 5.944252 11.763871 -4.727903 1.953526 6.928082 -2.799488 1.137013 -6.360127 -12.439723 -22.889725 -10.023281 8.439372 -30.410442 -85.706802 60.253973 19.130198 -18.075068 6.049942 -6.098467 13.647174 -12.137098 16.991044 27.423590 2.124800 -88.970751 87.125969 -62.136031 -14.137715 16.115276 5.449212 
0.267358 0.357170 0.993473 -8.420591 -1.810671 88.598994 -1.554227 -5.154806 -25.061751 -1.778933 0.732124 6.999692 1.796908 12.610182 -15.472199 0.000000 -0.000000 0.000000 -1.258773 -5.233325 9.407206 1.367130 10.562963 17.886480 8.554799 -3.555328 -16.323718 0.000000 -0.000000 0.000000 3.076527 10.007301 7.732358 0.595555 -0.258684 -4.282184 1.167883 4.639789 1.863810 5.744741 11.510321 -5.390783 1.622466 6.663206 -2.116471 3.179390 -7.635508 -12.293613 -19.815301 -10.286337 11.926384 -130.658205 -74.307317 171.430027 18.197289 -27.043012 17.688076 -9.097721 15.391167 -11.385456 12.215636 25.609802 1.613073 115.455551 85.075620 145.067962 -13.167294 21.045269 7.207953 
0.268300 0.320860 0.991370 -8.543936 -2.145842 88.788912 -2.529184 -6.812087 -25.378507 -2.003191 0.606551 10.594510 3.338664 13.431293 -14.656514 0.000000 -0.000000 0.000000 -2.007414 -4.842322 9.852714 1.747385 11.189143 21.169151 10.082325 -3.437490 -15.600242 0.000000 -0.000000 0.000000 2.231575 10.097591 7.195006 0.249092 -0.016421 -3.750058 0.762779 4.553764 2.082355 5.714979 9.393224 -6.480164 1.983896 5.128230 -1.929462 3.785193 -7.629096 -12.089682 -17.720496 -11.471093 13.207558 -141.516269 -65.091041 -173.883807 22.924402 -32.798093 19.332545 -9.719395 15.983653 -11.185462 10.263888 24.693344 1.349713 68.854344 83.526407 99.097169 -15.319402 21.842602 12.131419 
0.269655 0.283579 0.990174 -8.095140 -2.612488 88.870403 -3.362062 -9.015268 -25.541779 -2.194835 0.102615 14.243705 5.085805 14.508402 -11.799380 0.000000 -0.000000 0.000000 -2.529874 -4.189255 9.157896 2.413006 11.145514 26.464497 11.613218 -4.065915 -12.931803 0.000000 -0.000000 0.000000 0.869911 9.849002 7.031902 0.193035 0.132550 -3.550010 0.489120 4.386825 2.374325 5.941736 5.687385 -7.624087 2.720556 2.162090 -1.625443 1.738539 -6.029525 -11.602247 -16.466471 -11.557967 12.235846 -154.831454 -65.613290 -162.933405 26.043270 -31.740596 15.170929 -6.944214 15.584294 -11.431893 9.579071 23.762071 0.699529 8.495928 79.576833 37.682515 -14.400199 21.118384 17.189162 
0.271207 0.245845 0.991244 -7.222486 -3.098172 88.482277 -3.947386 -10.475458 -24.658209 -3.382359 0.016752 17.207761 7.127101 14.412064 -11.708558 0.000000 -0.000000 0.000000 -3.264644 -3.580705 7.125518 3.198877 8.807038 34.081117 13.616186 -4.398343 -6.703688 0.000000 -0.000000 0.000000 -0.369751 9.348805 7.344968 0.221840 0.412910 -3.275551 0.194802 4.129947 2.343976 6.668581 1.457312 -8.088266 2.861126 -1.914195 -0.777544 -1.978172 -4.550359 -11.661375 -16.936884 -11.602538 8.203405 178.637462 -71.472941 -138.507835 22.007665 -27.458276 17.545732 -3.092851 15.344325 -12.053063 11.349934 23.385509 -0.799688 -21.961761 69.081627 3.817021 -10.072597 16.667713 15.276696 
0.272946 0.208473 0.993106 -6.021364 -3.475048 87.725046 -5.334683 -10.328330 -22.494030 -4.213251 -0.336187 19.282487 9.330796 13.093857 -13.134944 0.000000 -0.000000 0.000000 -4.130367 -3.153251 3.936531 3.287112 5.124066 42.604641 14.362221 -5.059168 3.790833 0.000000 -0.000000 0.000000 -0.838933 8.416616 7.949340 0.081425 0.904358 -2.920713 -0.422979 3.565808 1.864613 7.370964 -2.987356 -7.314781 2.341705 -5.467380 0.402755 -5.198369 -4.246617 -12.262173 -20.277317 -13.893732 2.839939 126.434243 -73.495022 -86.849274 15.896169 -21.139254 21.212086 -0.106014 15.616834 -13.163469 16.320941 26.112009 -3.269769 -33.695061 53.484592 -13.600506 -6.331590 11.131116 7.274476 
0.275818 0.172270 0.994148 -4.278369 -4.278886 87.084875 -7.358723 -12.056822 -19.718941 -4.587114 -0.861199 19.812750 10.511027 13.974698 -14.987275 0.000000 -0.000000 0.000000 -5.636432 -2.345561 -0.076243 3.098416 1.117055 50.746398 13.993379 -8.552087 13.410700 0.000000 -0.000000 0.000000 -1.188088 7.508560 8.186011 -0.527952 0.740228 -2.888317 -0.702569 2.801634 1.978535 6.138586 -8.499771 -6.033394 3.008982 -6.155595 1.870188 -6.850924 -6.632835 -12.707256 -25.402906 -18.782226 -0.781606 85.753004 -61.158771 -52.856005 16.747037 -13.676926 15.394801 0.706642 17.056662 -15.840115 23.210354 31.720659 -4.318114 -40.600878 35.891704 -31.740581 -10.491147 6.456464 -1.906847 
0.277585 0.137284 0.995146 -2.321861 -4.368014 85.830610 -9.145280 -12.754308 -15.970316 -4.839379 -2.584831 19.929273 11.883761 14.793312 -16.726212 0.000000 -0.000000 0.000000 -6.073346 -2.628863 -3.514069 1.810113 -1.704173 57.719521 11.106926 -13.046001 14.123105 0.000000 -0.000000 0.000000 -0.843516 6.277545 9.058802 -0.495601 -0.057512 -2.513020 -1.073260 2.314368 1.767180 4.501825 -11.511299 -4.435371 3.400283 -6.537209 2.407676 -9.301016 -11.022097 -12.187388 -26.097922 -25.576252 -4.912149 72.265040 -44.560586 -55.813361 26.886545 -3.332490 -0.859592 3.699281 20.791565 -15.972811 24.011096 38.022211 -6.745509 -47.370777 23.102126 -47.685961 -26.084158 3.681024 0.309128 
0.278369 0.103643 0.997249 -1.136497 -4.068575 84.530663 -10.504246 -12.522109 -11.767690 -4.699441 -4.492957 19.333190 12.309899 15.775276 -18.234146 0.000000 -0.000000 0.000000 -5.855406 -2.437508 -6.904438 -0.483510 -3.899802 62.530360 7.498075 -15.687242 9.840865 0.000000 -0.000000 0.000000 -0.368524 5.105243 10.195339 -0.413406 -0.728426 -1.925634 -0.668876 1.829227 1.093606 2.291103 -12.622894 -2.773296 4.023743 -5.498195 2.000071 -10.530698 -16.505036 -11.224835 -25.130982 -30.557779 -10.331941 70.259412 -28.969969 -68.994162 32.725852 8.194832 -10.805297 5.242209 24.899928 -14.914271 24.781568 40.986379 -8.056347 -54.704266 19.858116 -57.825818 -34.401322 3.241653 1.508108 
0.278953 0.070984 1.000112 -0.773618 -3.634630 83.808812 -11.429876 -11.732628 -7.840691 -4.167942 -6.200976 17.968256 12.312745 16.714278 -19.440502 0.000000 -0.000000 0.000000 -5.491904 -1.421819 -10.890507 -1.657132 -5.120250 64.898675 5.391599 -16.775969 5.871472 0.000000 -0.000000 0.000000 -0.027037 3.709057 10.962225 -0.198914 -0.882378 -1.835292 -0.107204 1.424505 0.782378 1.113181 -11.818378 -1.931563 4.236431 -3.667966 1.577623 -9.874605 -18.860017 -10.543152 -25.700092 -32.697334 -13.200101 68.301213 -22.212139 -75.217363 35.069034 11.447158 -14.470375 4.861564 26.113054 -14.292209 29.253991 41.368711 -4.021322 -59.234168 26.173731 -59.106153 -33.467661 4.547689 1.087214 
0.279209 0.038685 1.003562 -0.745576 -3.229980 83.577469 -12.045424 -10.021615 -4.295656 -3.585331 -8.504897 16.196760 12.085288 17.556201 -20.441930 0.000000 -0.000000 0.000000 -5.316601 -0.377557 -14.994842 -1.079678 -5.509250 64.413442 5.175159 -16.656765 1.343535 0.000000 -0.000000 0.000000 -0.034551 2.196089 10.951599 0.417030 -0.929377 -1.571773 0.259348 1.319806 0.682688 1.441535 -8.851347 -1.687878 3.391395 -2.121700 1.239671 -9.303400 -18.525261 -9.895481 -27.449286 -30.095646 -10.219878 62.591018 -27.947664 -66.422582 35.221749 7.629812 -10.945184 4.700394 26.011629 -13.751639 32.068949 40.441663 1.150717 -60.915441 37.772751 -54.862205 -28.036360 6.329883 0.440954 
0.279307 0.006578 1.006513 -0.833230 -2.749523 83.446095 -12.206263 -8.293674 -0.749757 -3.058671 -10.702043 13.991646 11.375543 18.308467 -21.172015 0.000000 -0.000000 0.000000 -5.207919 0.624680 -18.520015 -0.444523 -6.011222 61.137598 6.031923 -16.578670 -2.856928 0.000000 -0.000000 0.000000 0.226851 0.603955 10.914707 0.860034 -0.717876 -1.182047 0.559227 1.157519 0.516298 2.114344 -5.250438 -1.567009 2.263395 0.229104 0.921112 -9.456856 -18.085227 -8.626646 -26.956996 -25.238403 -5.149285 57.377639 -39.074207 -56.673801 29.417423 2.715126 -8.524579 4.656242 26.319098 -12.937603 29.910099 39.135268 4.530310 -60.494656 51.147799 -50.750587 -20.754155 7.985167 -0.642858 
0.279351 -0.024214 1.008335 -0.460663 -2.184557 83.484453 -11.962936 -7.026422 2.277191 -2.754274 -12.517069 12.230267 10.642726 18.724180 -21.992277 0.000000 -0.000000 0.000000 -5.256739 1.196882 -21.456694 0.297867 -6.781755 55.587911 6.800665 -17.575243 -5.689482 0.000000 -0.000000 0.000000 0.857531 -0.862243 10.990892 0.990944 -0.414489 -1.065856 0.663164 0.703241 0.477332 3.049233 -2.264879 -1.813630 1.480227 3.116595 1.013094 -8.962319 -17.939024 -7.308367 -24.776528 -20.870244 0.030979 51.925153 -52.402945 -46.293975 22.123919 -4.584159 -6.759931 3.194092 26.602049 -12.446847 25.315739 38.081248 6.518960 -60.002549 63.791339 -46.380907 -12.531960 11.112380 1.642653 
0.278953 -0.053672 1.008982 0.354550 -1.664555 84.022537 -11.503390 -5.867547 4.213791 -2.583727 -14.275221 11.342875 10.196057 18.702430 -23.099988 0.000000 -0.000000 0.000000 -5.277153 1.021700 -24.162595 0.851810 -7.260801 48.269724 7.424494 -18.921219 -7.128655 0.000000 -0.000000 0.000000 1.541544 -1.828381 10.686308 0.912432 -0.310416 -1.130210 0.677540 0.290149 0.446298 4.095399 -0.011945 -1.797065 1.314546 5.466057 1.012710 -7.168766 -18.308132 -6.853915 -22.393208 -17.977615 4.986508 42.649093 -67.058148 -28.120179 17.774191 -11.359894 0.938749 0.308003 26.721935 -12.154097 20.044647 36.981265 6.745970 -61.081394 75.182208 -40.595760 -8.477580 15.644620 10.811157 
0.278022 -0.082898 1.008897 1.350835 -1.354817 84.906131 -11.064617 -4.650785 5.425064 -2.414271 -15.712357 11.048798 9.729598 18.182296 -24.363058 0.000000 -0.000000 0.000000 -5.193092 0.381016 -26.298621 1.035432 -7.393667 39.273832 8.318805 -19.542930 -6.899892 0.000000 -0.000000 0.000000 1.878977 -2.257364 10.088390 0.832935 -0.479625 -1.282902 0.764695 -0.081477 0.300427 5.082706 1.919025 -1.460609 1.627673 6.778286 1.005250 -4.437677 -19.070410 -6.841670 -20.302237 -17.193299 9.309651 8.405471 -80.536837 16.531875 14.607677 -17.006430 10.631983 -2.975482 26.560330 -11.818988 15.680890 36.170513 6.039228 -63.749110 83.825599 -37.585473 -10.619446 19.318847 18.350372 
0.276508 -0.112638 1.008050 2.532311 -1.473413 85.847232 -10.943079 -3.645336 6.431896 -2.291723 -16.338599 10.979859 9.357450 17.225535 -25.545897 0.000000 -0.000000 0.000000 -5.244187 -0.419558 -27.483182 1.056029 -7.539914 28.877219 9.361216 -19.598750 -4.612004 0.000000 -0.000000 0.000000 1.488841 -2.360004 9.353659 0.837329 -0.881276 -1.167033 0.884223 -0.639187 0.140980 6.034927 3.430124 -1.659218 2.263317 7.186661 1.312394 -1.910831 -19.866788 -6.591264 -18.742146 -18.497181 12.804556 -82.194620 -79.169156 116.243610 10.280112 -22.584479 18.685333 -5.240118 25.837676 -11.359700 14.637827 35.145217 5.341230 -58.672198 85.388365 -31.075936 -11.750193 20.544567 18.116398 
